<svg xmlns="http://www.w3.org/2000/svg" version="1.1" xmlns:xlink="http://www.w3.org/1999/xlink" xmlns:svgjs="http://svgjs.dev/svgjs" width="2000" height="1500" viewBox="0 0 2000 1500"><rect width="2000" height="1500" fill="#161616"></rect><g transform="matrix(0.75,0,0,0.75,249.090909090909,575.1392708300395)"><svg viewBox="0 0 396 92" data-background-color="#161616" preserveAspectRatio="xMidYMid meet" height="464" width="2000" xmlns="http://www.w3.org/2000/svg" xmlns:xlink="http://www.w3.org/1999/xlink"><g id="tight-bounds" transform="matrix(1,0,0,1,0.2400000000000091,0.22754909090909337)"><svg viewBox="0 0 395.52 91.54490181818181" height="91.54490181818181" width="395.52"><g><svg viewBox="0 0 395.52 91.54490181818181" height="91.54490181818181" width="395.52"><g><svg viewBox="0 0 395.52 91.54490181818181" height="91.54490181818181" width="395.52"><g><svg viewBox="0 0 395.52 91.54490181818181" height="91.54490181818181" width="395.52"><g id="textblocktransform"><svg viewBox="0 0 395.52 91.54490181818181" height="91.54490181818181" width="395.52" id="textblock"><g><svg viewBox="0 0 395.52 91.54490181818181" height="91.54490181818181" width="395.52"><rect width="395.52" height="91.54490181818181" x="0" y="0" opacity="1" fill="#161616" data-fill-palette-color="tertiary"></rect><g transform="matrix(1,0,0,1,23.607599999999998,23.607599999999994)"><svg width="348.3048" viewBox="0 -50 343.74 43.75" height="44.329701818181825" data-palette-color="#ffffff"><path d="M12.5-6.25L0-6.25 0-50 37.5-50 37.5-43.75 43.75-43.75 43.75-25 37.5-25 37.5-18.75 12.5-18.75 12.5-6.25ZM12.5-43.75L12.5-25 31.25-25 31.25-43.75 12.5-43.75ZM93.75-6.25L56.25-6.25 56.25-50 68.75-50 68.75-12.5 93.75-12.5 93.75-6.25ZM112.5-6.25L100-6.25 100-37.5 106.25-37.5 106.25-43.75 112.5-43.75 112.5-50 131.25-50 131.25-43.75 137.5-43.75 137.5-37.5 143.75-37.5 143.75-6.25 131.25-6.25 131.25-18.75 112.5-18.75 112.5-6.25ZM112.5-37.5L112.5-25 131.25-25 131.25-37.5 125-37.5 125-43.75 118.75-43.75 118.75-37.5 112.5-37.5ZM181.24-6.25L168.74-6.25 168.74-25 162.49-25 162.49-31.25 156.24-31.25 156.24-50 168.74-50 168.74-31.25 181.24-31.25 181.24-50 193.74-50 193.74-31.25 187.49-31.25 187.49-25 181.24-25 181.24-6.25ZM243.74-6.25L206.24-6.25 206.24-12.5 218.74-12.5 218.74-43.75 206.24-43.75 206.24-50 243.74-50 243.74-43.75 231.24-43.75 231.24-12.5 243.74-12.5 243.74-6.25ZM262.49-6.25L249.99-6.25 249.99-50 262.49-50 262.49-43.75 268.74-43.75 268.74-37.5 274.99-37.5 274.99-31.25 281.24-31.25 281.24-50 293.74-50 293.74-6.25 281.24-6.25 281.24-18.75 274.99-18.75 274.99-25 268.74-25 268.74-31.25 262.49-31.25 262.49-6.25ZM312.49-6.25L299.99-6.25 299.99-18.75 306.24-18.75 306.24-25 312.49-25 312.49-31.25 306.24-31.25 306.24-37.5 299.99-37.5 299.99-50 312.49-50 312.49-37.5 318.74-37.5 318.74-31.25 324.99-31.25 324.99-37.5 331.24-37.5 331.24-50 343.74-50 343.74-37.5 337.49-37.5 337.49-31.25 331.24-31.25 331.24-25 337.49-25 337.49-18.75 343.74-18.75 343.74-6.25 331.24-6.25 331.24-18.75 324.99-18.75 324.99-25 318.74-25 318.74-18.75 312.49-18.75 312.49-6.25Z" opacity="1" transform="matrix(1,0,0,1,0,0)" fill="#ffffff" class="wordmark-text-0" data-fill-palette-color="quaternary" id="text-0"></path></svg></g></svg></g></svg></g></svg></g></svg></g></svg></g><defs></defs></svg><rect width="395.52" height="91.54490181818181" fill="none" stroke="none" visibility="hidden"></rect></g></svg></g></svg>